<svg xmlns="http://www.w3.org/2000/svg" xmlns:xlink="http://www.w3.org/1999/xlink" width="680pt" height="413pt" viewBox="0.00 0.00 680.22 412.80">
<g id="graph0" class="graph" transform="scale(1 1) rotate(0) translate(4 408.8)">
<title>model_graph</title>
<polygon fill="white" stroke="none" points="-4,4 -4,-408.8 676.22,-408.8 676.22,4 -4,4"/>
<!-- menu_models_MenuCategory -->
<g id="node1" class="node">
<title>menu_models_MenuCategory</title>
<polygon fill="white" stroke="none" points="69,-17.6 69,-68.8 174.11,-68.8 174.11,-17.6 69,-17.6"/>
<polygon fill="#1b563f" stroke="none" points="70,-45.8 70,-67.8 173.11,-67.8 173.11,-45.8 70,-45.8"/>
<text text-anchor="start" x="75.34" y="-54.8" font-family="Roboto" font-size="8.00">    </text>
<text text-anchor="start" x="83.34" y="-54.8" font-family="Roboto" font-weight="bold" font-size="10.00" fill="white">    MenuCategory    </text>
<text text-anchor="start" x="72" y="-37.6" font-family="Roboto" font-size="8.00">    </text>
<text text-anchor="start" x="80" y="-37.6" font-family="Roboto" font-weight="bold" font-size="8.00">id</text>
<text text-anchor="start" x="86.67" y="-37.6" font-family="Roboto" font-size="8.00">    </text>
<text text-anchor="start" x="109.32" y="-37.6" font-family="Roboto" font-size="8.00">    </text>
<text text-anchor="start" x="117.32" y="-37.6" font-family="Roboto" font-weight="bold" font-size="8.00">BigAutoField</text>
<text text-anchor="start" x="163.11" y="-37.6" font-family="Roboto" font-size="8.00">    </text>
<text text-anchor="start" x="72" y="-24" font-family="Roboto" font-size="8.00">    </text>
<text text-anchor="start" x="80" y="-24" font-family="Roboto" font-size="8.00">name</text>
<text text-anchor="start" x="97.32" y="-24" font-family="Roboto" font-size="8.00">    </text>
<text text-anchor="start" x="109.32" y="-24" font-family="Roboto" font-size="8.00">    </text>
<text text-anchor="start" x="117.32" y="-24" font-family="Roboto" font-size="8.00">CharField</text>
<text text-anchor="start" x="149.32" y="-24" font-family="Roboto" font-size="8.00">    </text>
<polygon fill="none" stroke="black" points="69,-17.6 69,-68.8 174.11,-68.8 174.11,-17.6 69,-17.6"/>
</g>
<!-- menu_models_MenuItem -->
<g id="node2" class="node">
<title>menu_models_MenuItem</title>
<polygon fill="white" stroke="none" points="54.23,-136 54.23,-241.6 188.87,-241.6 188.87,-136 54.23,-136"/>
<polygon fill="#1b563f" stroke="none" points="55.23,-218.6 55.23,-240.6 187.87,-240.6 187.87,-218.6 55.23,-218.6"/>
<text text-anchor="start" x="85.06" y="-227.6" font-family="Roboto" font-size="8.00">    </text>
<text text-anchor="start" x="93.06" y="-227.6" font-family="Roboto" font-weight="bold" font-size="10.00" fill="white">    MenuItem    </text>
<text text-anchor="start" x="57.23" y="-210.4" font-family="Roboto" font-size="8.00">    </text>
<text text-anchor="start" x="65.23" y="-210.4" font-family="Roboto" font-weight="bold" font-size="8.00">id</text>
<text text-anchor="start" x="71.9" y="-210.4" font-family="Roboto" font-size="8.00">    </text>
<text text-anchor="start" x="115.44" y="-210.4" font-family="Roboto" font-size="8.00">    </text>
<text text-anchor="start" x="123.44" y="-210.4" font-family="Roboto" font-weight="bold" font-size="8.00">BigAutoField</text>
<text text-anchor="start" x="169.22" y="-210.4" font-family="Roboto" font-size="8.00">    </text>
<text text-anchor="start" x="57.23" y="-196.8" font-family="Roboto" font-size="8.00">    </text>
<text text-anchor="start" x="65.23" y="-196.8" font-family="Roboto" font-weight="bold" font-size="8.00">category</text>
<text text-anchor="start" x="94.55" y="-196.8" font-family="Roboto" font-size="8.00">    </text>
<text text-anchor="start" x="115.44" y="-196.8" font-family="Roboto" font-size="8.00">    </text>
<text text-anchor="start" x="123.44" y="-196.8" font-family="Roboto" font-weight="bold" font-size="8.00">ForeignKey (id)</text>
<text text-anchor="start" x="177.87" y="-196.8" font-family="Roboto" font-size="8.00">    </text>
<text text-anchor="start" x="57.23" y="-183.2" font-family="Roboto" font-size="8.00">    </text>
<text text-anchor="start" x="65.23" y="-183.2" font-family="Roboto" font-size="8.00" fill="#7b7b7b">description</text>
<text text-anchor="start" x="100.78" y="-183.2" font-family="Roboto" font-size="8.00">    </text>
<text text-anchor="start" x="115.44" y="-183.2" font-family="Roboto" font-size="8.00">    </text>
<text text-anchor="start" x="123.44" y="-183.2" font-family="Roboto" font-size="8.00" fill="#7b7b7b">TextField</text>
<text text-anchor="start" x="154.54" y="-183.2" font-family="Roboto" font-size="8.00">    </text>
<text text-anchor="start" x="57.23" y="-169.6" font-family="Roboto" font-size="8.00">    </text>
<text text-anchor="start" x="65.23" y="-169.6" font-family="Roboto" font-size="8.00">is_available</text>
<text text-anchor="start" x="103.44" y="-169.6" font-family="Roboto" font-size="8.00">    </text>
<text text-anchor="start" x="115.44" y="-169.6" font-family="Roboto" font-size="8.00">    </text>
<text text-anchor="start" x="123.44" y="-169.6" font-family="Roboto" font-size="8.00">BooleanField</text>
<text text-anchor="start" x="166.54" y="-169.6" font-family="Roboto" font-size="8.00">    </text>
<text text-anchor="start" x="57.23" y="-156" font-family="Roboto" font-size="8.00">    </text>
<text text-anchor="start" x="65.23" y="-156" font-family="Roboto" font-size="8.00">name</text>
<text text-anchor="start" x="82.56" y="-156" font-family="Roboto" font-size="8.00">    </text>
<text text-anchor="start" x="115.44" y="-156" font-family="Roboto" font-size="8.00">    </text>
<text text-anchor="start" x="123.44" y="-156" font-family="Roboto" font-size="8.00">CharField</text>
<text text-anchor="start" x="155.44" y="-156" font-family="Roboto" font-size="8.00">    </text>
<text text-anchor="start" x="57.23" y="-142.4" font-family="Roboto" font-size="8.00">    </text>
<text text-anchor="start" x="65.23" y="-142.4" font-family="Roboto" font-size="8.00">price</text>
<text text-anchor="start" x="81.22" y="-142.4" font-family="Roboto" font-size="8.00">    </text>
<text text-anchor="start" x="115.44" y="-142.4" font-family="Roboto" font-size="8.00">    </text>
<text text-anchor="start" x="123.44" y="-142.4" font-family="Roboto" font-size="8.00">DecimalField</text>
<text text-anchor="start" x="166.98" y="-142.4" font-family="Roboto" font-size="8.00">    </text>
<polygon fill="none" stroke="black" points="54.23,-136 54.23,-241.6 188.87,-241.6 188.87,-136 54.23,-136"/>
</g>
<!-- menu_models_MenuItem&#45;&gt;menu_models_MenuCategory -->
<g id="edge1" class="edge">
<title>menu_models_MenuItem-&gt;menu_models_MenuCategory</title>
<path fill="none" stroke="black" d="M121.55,-123.6C121.55,-105.78 121.55,-87.32 121.55,-72.69"/>
<ellipse fill="black" stroke="black" cx="121.55" cy="-127.78" rx="4" ry="4"/>
<text text-anchor="middle" x="148.65" y="-106.8" font-family="Roboto" font-size="8.00"> category (items)</text>
</g>
<!-- menu_models_DailyMenu -->
<g id="node3" class="node">
<title>menu_models_DailyMenu</title>
<polygon fill="white" stroke="none" points="8,-322.4 8,-373.6 109.11,-373.6 109.11,-322.4 8,-322.4"/>
<polygon fill="#1b563f" stroke="none" points="9,-350.6 9,-372.6 108.11,-372.6 108.11,-350.6 9,-350.6"/>
<text text-anchor="start" x="20.66" y="-359.6" font-family="Roboto" font-size="8.00">    </text>
<text text-anchor="start" x="28.66" y="-359.6" font-family="Roboto" font-weight="bold" font-size="10.00" fill="white">    DailyMenu    </text>
<text text-anchor="start" x="11" y="-342.4" font-family="Roboto" font-size="8.00">    </text>
<text text-anchor="start" x="19" y="-342.4" font-family="Roboto" font-weight="bold" font-size="8.00">id</text>
<text text-anchor="start" x="25.67" y="-342.4" font-family="Roboto" font-size="8.00">    </text>
<text text-anchor="start" x="44.32" y="-342.4" font-family="Roboto" font-size="8.00">    </text>
<text text-anchor="start" x="52.32" y="-342.4" font-family="Roboto" font-weight="bold" font-size="8.00">BigAutoField</text>
<text text-anchor="start" x="98.11" y="-342.4" font-family="Roboto" font-size="8.00">    </text>
<text text-anchor="start" x="11" y="-328.8" font-family="Roboto" font-size="8.00">    </text>
<text text-anchor="start" x="19" y="-328.8" font-family="Roboto" font-size="8.00">date</text>
<text text-anchor="start" x="32.32" y="-328.8" font-family="Roboto" font-size="8.00">    </text>
<text text-anchor="start" x="44.32" y="-328.8" font-family="Roboto" font-size="8.00">    </text>
<text text-anchor="start" x="52.32" y="-328.8" font-family="Roboto" font-size="8.00">DateField</text>
<text text-anchor="start" x="83.87" y="-328.8" font-family="Roboto" font-size="8.00">    </text>
<polygon fill="none" stroke="black" points="8,-322.4 8,-373.6 109.11,-373.6 109.11,-322.4 8,-322.4"/>
</g>
<!-- menu_models_DailyMenu&#45;&gt;menu_models_MenuItem -->
<g id="edge2" class="edge">
<title>menu_models_DailyMenu-&gt;menu_models_MenuItem</title>
<path fill="none" stroke="black" d="M69.68,-310.17C74.38,-295.53 80.18,-278.62 86.24,-263.6 87.58,-260.27 89.01,-256.87 90.48,-253.46"/>
<ellipse fill="black" stroke="black" cx="68.4" cy="-314.21" rx="4" ry="4"/>
<ellipse fill="black" stroke="black" cx="92.18" cy="-249.6" rx="4" ry="4"/>
<text text-anchor="middle" x="130.89" y="-266" font-family="Roboto" font-size="8.00"> menu_items (daily_menus)</text>
</g>
<!-- orders_models_Order -->
<g id="node4" class="node">
<title>orders_models_Order</title>
<polygon fill="white" stroke="none" points="308.79,-142.8 308.79,-234.8 440.32,-234.8 440.32,-142.8 308.79,-142.8"/>
<polygon fill="#1b563f" stroke="none" points="309.79,-211.8 309.79,-233.8 439.32,-233.8 439.32,-211.8 309.79,-211.8"/>
<text text-anchor="start" x="347.23" y="-220.8" font-family="Roboto" font-size="8.00">    </text>
<text text-anchor="start" x="355.23" y="-220.8" font-family="Roboto" font-weight="bold" font-size="10.00" fill="white">    Order    </text>
<text text-anchor="start" x="311.79" y="-203.6" font-family="Roboto" font-size="8.00">    </text>
<text text-anchor="start" x="319.79" y="-203.6" font-family="Roboto" font-weight="bold" font-size="8.00">id</text>
<text text-anchor="start" x="326.46" y="-203.6" font-family="Roboto" font-size="8.00">    </text>
<text text-anchor="start" x="366.88" y="-203.6" font-family="Roboto" font-size="8.00">    </text>
<text text-anchor="start" x="374.88" y="-203.6" font-family="Roboto" font-weight="bold" font-size="8.00">BigAutoField</text>
<text text-anchor="start" x="420.67" y="-203.6" font-family="Roboto" font-size="8.00">    </text>
<text text-anchor="start" x="311.79" y="-190" font-family="Roboto" font-size="8.00">    </text>
<text text-anchor="start" x="319.79" y="-190" font-family="Roboto" font-weight="bold" font-size="8.00">table</text>
<text text-anchor="start" x="336.67" y="-190" font-family="Roboto" font-size="8.00">    </text>
<text text-anchor="start" x="366.88" y="-190" font-family="Roboto" font-size="8.00">    </text>
<text text-anchor="start" x="374.88" y="-190" font-family="Roboto" font-weight="bold" font-size="8.00">ForeignKey (id)</text>
<text text-anchor="start" x="429.32" y="-190" font-family="Roboto" font-size="8.00">    </text>
<text text-anchor="start" x="311.79" y="-176.4" font-family="Roboto" font-size="8.00">    </text>
<text text-anchor="start" x="319.79" y="-176.4" font-family="Roboto" font-size="8.00" fill="#7b7b7b">created_at</text>
<text text-anchor="start" x="352.65" y="-176.4" font-family="Roboto" font-size="8.00">    </text>
<text text-anchor="start" x="366.88" y="-176.4" font-family="Roboto" font-size="8.00">    </text>
<text text-anchor="start" x="374.88" y="-176.4" font-family="Roboto" font-size="8.00" fill="#7b7b7b">DateTimeField</text>
<text text-anchor="start" x="423.31" y="-176.4" font-family="Roboto" font-size="8.00">    </text>
<text text-anchor="start" x="311.79" y="-162.8" font-family="Roboto" font-size="8.00">    </text>
<text text-anchor="start" x="319.79" y="-162.8" font-family="Roboto" font-size="8.00">status</text>
<text text-anchor="start" x="338.01" y="-162.8" font-family="Roboto" font-size="8.00">    </text>
<text text-anchor="start" x="366.88" y="-162.8" font-family="Roboto" font-size="8.00">    </text>
<text text-anchor="start" x="374.88" y="-162.8" font-family="Roboto" font-size="8.00">CharField</text>
<text text-anchor="start" x="406.88" y="-162.8" font-family="Roboto" font-size="8.00">    </text>
<text text-anchor="start" x="311.79" y="-149.2" font-family="Roboto" font-size="8.00">    </text>
<text text-anchor="start" x="319.79" y="-149.2" font-family="Roboto" font-size="8.00" fill="#7b7b7b">updated_at</text>
<text text-anchor="start" x="354.88" y="-149.2" font-family="Roboto" font-size="8.00">    </text>
<text text-anchor="start" x="366.88" y="-149.2" font-family="Roboto" font-size="8.00">    </text>
<text text-anchor="start" x="374.88" y="-149.2" font-family="Roboto" font-size="8.00" fill="#7b7b7b">DateTimeField</text>
<text text-anchor="start" x="423.31" y="-149.2" font-family="Roboto" font-size="8.00">    </text>
<polygon fill="none" stroke="black" points="308.79,-142.8 308.79,-234.8 440.32,-234.8 440.32,-142.8 308.79,-142.8"/>
</g>
<!-- tables_models_Table -->
<g id="node6" class="node">
<title>tables_models_Table</title>
<polygon fill="white" stroke="none" points="289.79,-4 289.79,-82.4 459.32,-82.4 459.32,-4 289.79,-4"/>
<polygon fill="#1b563f" stroke="none" points="290.79,-59.4 290.79,-81.4 458.32,-81.4 458.32,-59.4 290.79,-59.4"/>
<text text-anchor="start" x="348.33" y="-68.4" font-family="Roboto" font-size="8.00">    </text>
<text text-anchor="start" x="356.33" y="-68.4" font-family="Roboto" font-weight="bold" font-size="10.00" fill="white">    Table    </text>
<text text-anchor="start" x="292.79" y="-51.2" font-family="Roboto" font-size="8.00">    </text>
<text text-anchor="start" x="300.79" y="-51.2" font-family="Roboto" font-weight="bold" font-size="8.00">id</text>
<text text-anchor="start" x="307.46" y="-51.2" font-family="Roboto" font-size="8.00">    </text>
<text text-anchor="start" x="356.77" y="-51.2" font-family="Roboto" font-size="8.00">    </text>
<text text-anchor="start" x="364.77" y="-51.2" font-family="Roboto" font-weight="bold" font-size="8.00">BigAutoField</text>
<text text-anchor="start" x="410.55" y="-51.2" font-family="Roboto" font-size="8.00">    </text>
<text text-anchor="start" x="292.79" y="-37.6" font-family="Roboto" font-size="8.00">    </text>
<text text-anchor="start" x="300.79" y="-37.6" font-family="Roboto" font-size="8.00">seats</text>
<text text-anchor="start" x="316.34" y="-37.6" font-family="Roboto" font-size="8.00">    </text>
<text text-anchor="start" x="356.77" y="-37.6" font-family="Roboto" font-size="8.00">    </text>
<text text-anchor="start" x="364.77" y="-37.6" font-family="Roboto" font-size="8.00">PositiveSmallIntegerField</text>
<text text-anchor="start" x="448.32" y="-37.6" font-family="Roboto" font-size="8.00">    </text>
<text text-anchor="start" x="292.79" y="-24" font-family="Roboto" font-size="8.00">    </text>
<text text-anchor="start" x="300.79" y="-24" font-family="Roboto" font-size="8.00">status</text>
<text text-anchor="start" x="319.01" y="-24" font-family="Roboto" font-size="8.00">    </text>
<text text-anchor="start" x="356.77" y="-24" font-family="Roboto" font-size="8.00">    </text>
<text text-anchor="start" x="364.77" y="-24" font-family="Roboto" font-size="8.00">CharField</text>
<text text-anchor="start" x="396.77" y="-24" font-family="Roboto" font-size="8.00">    </text>
<text text-anchor="start" x="292.79" y="-10.4" font-family="Roboto" font-size="8.00">    </text>
<text text-anchor="start" x="300.79" y="-10.4" font-family="Roboto" font-size="8.00">table_number</text>
<text text-anchor="start" x="344.77" y="-10.4" font-family="Roboto" font-size="8.00">    </text>
<text text-anchor="start" x="356.77" y="-10.4" font-family="Roboto" font-size="8.00">    </text>
<text text-anchor="start" x="364.77" y="-10.4" font-family="Roboto" font-size="8.00">PositiveSmallIntegerField</text>
<text text-anchor="start" x="448.32" y="-10.4" font-family="Roboto" font-size="8.00">    </text>
<polygon fill="none" stroke="black" points="289.79,-4 289.79,-82.4 459.32,-82.4 459.32,-4 289.79,-4"/>
</g>
<!-- orders_models_Order&#45;&gt;tables_models_Table -->
<g id="edge3" class="edge">
<title>orders_models_Order-&gt;tables_models_Table</title>
<path fill="none" stroke="black" d="M374.55,-130.55C374.55,-115.69 374.55,-99.96 374.55,-86.05"/>
<ellipse fill="black" stroke="black" cx="374.55" cy="-134.68" rx="4" ry="4"/>
<text text-anchor="middle" x="396.99" y="-106.8" font-family="Roboto" font-size="8.00"> table (orders)</text>
</g>
<!-- orders_models_OrderItem -->
<g id="node5" class="node">
<title>orders_models_OrderItem</title>
<polygon fill="white" stroke="none" points="142.67,-295.2 142.67,-400.8 306.43,-400.8 306.43,-295.2 142.67,-295.2"/>
<polygon fill="#1b563f" stroke="none" points="143.67,-377.8 143.67,-399.8 305.43,-399.8 305.43,-377.8 143.67,-377.8"/>
<text text-anchor="start" x="187.23" y="-386.8" font-family="Roboto" font-size="8.00">    </text>
<text text-anchor="start" x="195.23" y="-386.8" font-family="Roboto" font-weight="bold" font-size="10.00" fill="white">    OrderItem    </text>
<text text-anchor="start" x="145.67" y="-369.6" font-family="Roboto" font-size="8.00">    </text>
<text text-anchor="start" x="153.67" y="-369.6" font-family="Roboto" font-weight="bold" font-size="8.00">id</text>
<text text-anchor="start" x="160.34" y="-369.6" font-family="Roboto" font-size="8.00">    </text>
<text text-anchor="start" x="203.89" y="-369.6" font-family="Roboto" font-size="8.00">    </text>
<text text-anchor="start" x="211.89" y="-369.6" font-family="Roboto" font-weight="bold" font-size="8.00">BigAutoField</text>
<text text-anchor="start" x="257.67" y="-369.6" font-family="Roboto" font-size="8.00">    </text>
<text text-anchor="start" x="145.67" y="-356" font-family="Roboto" font-size="8.00">    </text>
<text text-anchor="start" x="153.67" y="-356" font-family="Roboto" font-weight="bold" font-size="8.00">menu_item</text>
<text text-anchor="start" x="191.89" y="-356" font-family="Roboto" font-size="8.00">    </text>
<text text-anchor="start" x="203.89" y="-356" font-family="Roboto" font-size="8.00">    </text>
<text text-anchor="start" x="211.89" y="-356" font-family="Roboto" font-weight="bold" font-size="8.00">ForeignKey (id)</text>
<text text-anchor="start" x="266.32" y="-356" font-family="Roboto" font-size="8.00">    </text>
<text text-anchor="start" x="145.67" y="-342.4" font-family="Roboto" font-size="8.00">    </text>
<text text-anchor="start" x="153.67" y="-342.4" font-family="Roboto" font-weight="bold" font-size="8.00">order</text>
<text text-anchor="start" x="172.77" y="-342.4" font-family="Roboto" font-size="8.00">    </text>
<text text-anchor="start" x="203.89" y="-342.4" font-family="Roboto" font-size="8.00">    </text>
<text text-anchor="start" x="211.89" y="-342.4" font-family="Roboto" font-weight="bold" font-size="8.00">ForeignKey (id)</text>
<text text-anchor="start" x="266.32" y="-342.4" font-family="Roboto" font-size="8.00">    </text>
<text text-anchor="start" x="145.67" y="-328.8" font-family="Roboto" font-size="8.00">    </text>
<text text-anchor="start" x="153.67" y="-328.8" font-family="Roboto" font-size="8.00" fill="#7b7b7b">note</text>
<text text-anchor="start" x="167.45" y="-328.8" font-family="Roboto" font-size="8.00">    </text>
<text text-anchor="start" x="203.89" y="-328.8" font-family="Roboto" font-size="8.00">    </text>
<text text-anchor="start" x="211.89" y="-328.8" font-family="Roboto" font-size="8.00" fill="#7b7b7b">TextField</text>
<text text-anchor="start" x="242.99" y="-328.8" font-family="Roboto" font-size="8.00">    </text>
<text text-anchor="start" x="145.67" y="-315.2" font-family="Roboto" font-size="8.00">    </text>
<text text-anchor="start" x="153.67" y="-315.2" font-family="Roboto" font-size="8.00">quantity</text>
<text text-anchor="start" x="179.89" y="-315.2" font-family="Roboto" font-size="8.00">    </text>
<text text-anchor="start" x="203.89" y="-315.2" font-family="Roboto" font-size="8.00">    </text>
<text text-anchor="start" x="211.89" y="-315.2" font-family="Roboto" font-size="8.00">PositiveSmallIntegerField</text>
<text text-anchor="start" x="295.43" y="-315.2" font-family="Roboto" font-size="8.00">    </text>
<text text-anchor="start" x="145.67" y="-301.6" font-family="Roboto" font-size="8.00">    </text>
<text text-anchor="start" x="153.67" y="-301.6" font-family="Roboto" font-size="8.00" fill="#7b7b7b">unit_price</text>
<text text-anchor="start" x="186.11" y="-301.6" font-family="Roboto" font-size="8.00">    </text>
<text text-anchor="start" x="203.89" y="-301.6" font-family="Roboto" font-size="8.00">    </text>
<text text-anchor="start" x="211.89" y="-301.6" font-family="Roboto" font-size="8.00" fill="#7b7b7b">DecimalField</text>
<text text-anchor="start" x="255.43" y="-301.6" font-family="Roboto" font-size="8.00">    </text>
<polygon fill="none" stroke="black" points="142.67,-295.2 142.67,-400.8 306.43,-400.8 306.43,-295.2 142.67,-295.2"/>
</g>
<!-- orders_models_OrderItem&#45;&gt;menu_models_MenuItem -->
<g id="edge5" class="edge">
<title>orders_models_OrderItem-&gt;menu_models_MenuItem</title>
<path fill="none" stroke="black" d="M188.37,-283.86C184.15,-276.96 179.82,-270.09 175.55,-263.6 171.63,-257.63 167.42,-251.48 163.14,-245.39"/>
<ellipse fill="black" stroke="black" cx="190.57" cy="-287.49" rx="4" ry="4"/>
<text text-anchor="middle" x="219.45" y="-266" font-family="Roboto" font-size="8.00"> menu_item (orderitem)</text>
</g>
<!-- orders_models_OrderItem&#45;&gt;orders_models_Order -->
<g id="edge4" class="edge">
<title>orders_models_OrderItem-&gt;orders_models_Order</title>
<path fill="none" stroke="black" d="M283.28,-285.46C298.08,-269.95 313.77,-253.51 327.88,-238.71"/>
<ellipse fill="black" stroke="black" cx="280.54" cy="-288.32" rx="4" ry="4"/>
<text text-anchor="middle" x="325.82" y="-266" font-family="Roboto" font-size="8.00"> order (items)</text>
</g>
<!-- sales_models_Sale -->
<g id="node7" class="node">
<title>sales_models_Sale</title>
<polygon fill="white" stroke="none" points="340.22,-302 340.22,-394 506.88,-394 506.88,-302 340.22,-302"/>
<polygon fill="#1b563f" stroke="none" points="341.22,-371 341.22,-393 505.88,-393 505.88,-371 341.22,-371"/>
<text text-anchor="start" x="400.66" y="-380" font-family="Roboto" font-size="8.00">    </text>
<text text-anchor="start" x="408.66" y="-380" font-family="Roboto" font-weight="bold" font-size="10.00" fill="white">    Sale    </text>
<text text-anchor="start" x="343.22" y="-362.8" font-family="Roboto" font-size="8.00">    </text>
<text text-anchor="start" x="351.22" y="-362.8" font-family="Roboto" font-weight="bold" font-size="8.00">id</text>
<text text-anchor="start" x="357.9" y="-362.8" font-family="Roboto" font-size="8.00">    </text>
<text text-anchor="start" x="418.77" y="-362.8" font-family="Roboto" font-size="8.00">    </text>
<text text-anchor="start" x="426.77" y="-362.8" font-family="Roboto" font-weight="bold" font-size="8.00">BigAutoField</text>
<text text-anchor="start" x="472.55" y="-362.8" font-family="Roboto" font-size="8.00">    </text>
<text text-anchor="start" x="343.22" y="-349.2" font-family="Roboto" font-size="8.00">    </text>
<text text-anchor="start" x="351.22" y="-349.2" font-family="Roboto" font-weight="bold" font-size="8.00">order</text>
<text text-anchor="start" x="370.33" y="-349.2" font-family="Roboto" font-size="8.00">    </text>
<text text-anchor="start" x="418.77" y="-349.2" font-family="Roboto" font-size="8.00">    </text>
<text text-anchor="start" x="426.77" y="-349.2" font-family="Roboto" font-weight="bold" font-size="8.00">OneToOneField (id)</text>
<text text-anchor="start" x="495.88" y="-349.2" font-family="Roboto" font-size="8.00">    </text>
<text text-anchor="start" x="343.22" y="-335.6" font-family="Roboto" font-size="8.00">    </text>
<text text-anchor="start" x="351.22" y="-335.6" font-family="Roboto" font-size="8.00" fill="#7b7b7b">amount</text>
<text text-anchor="start" x="375.22" y="-335.6" font-family="Roboto" font-size="8.00">    </text>
<text text-anchor="start" x="418.77" y="-335.6" font-family="Roboto" font-size="8.00">    </text>
<text text-anchor="start" x="426.77" y="-335.6" font-family="Roboto" font-size="8.00" fill="#7b7b7b">DecimalField</text>
<text text-anchor="start" x="470.31" y="-335.6" font-family="Roboto" font-size="8.00">    </text>
<text text-anchor="start" x="343.22" y="-322" font-family="Roboto" font-size="8.00">    </text>
<text text-anchor="start" x="351.22" y="-322" font-family="Roboto" font-size="8.00">payment_method</text>
<text text-anchor="start" x="406.77" y="-322" font-family="Roboto" font-size="8.00">    </text>
<text text-anchor="start" x="418.77" y="-322" font-family="Roboto" font-size="8.00">    </text>
<text text-anchor="start" x="426.77" y="-322" font-family="Roboto" font-size="8.00">CharField</text>
<text text-anchor="start" x="458.76" y="-322" font-family="Roboto" font-size="8.00">    </text>
<text text-anchor="start" x="343.22" y="-308.4" font-family="Roboto" font-size="8.00">    </text>
<text text-anchor="start" x="351.22" y="-308.4" font-family="Roboto" font-size="8.00" fill="#7b7b7b">payment_time</text>
<text text-anchor="start" x="396.99" y="-308.4" font-family="Roboto" font-size="8.00">    </text>
<text text-anchor="start" x="418.77" y="-308.4" font-family="Roboto" font-size="8.00">    </text>
<text text-anchor="start" x="426.77" y="-308.4" font-family="Roboto" font-size="8.00" fill="#7b7b7b">DateTimeField</text>
<text text-anchor="start" x="475.2" y="-308.4" font-family="Roboto" font-size="8.00">    </text>
<polygon fill="none" stroke="black" points="340.22,-302 340.22,-394 506.88,-394 506.88,-302 340.22,-302"/>
</g>
<!-- sales_models_Sale&#45;&gt;orders_models_Order -->
<g id="edge6" class="edge">
<title>sales_models_Sale-&gt;orders_models_Order</title>
<path fill="none" stroke="black" d="M408.32,-298.12C402.42,-279.2 395.68,-257.57 389.78,-238.65"/>
<text text-anchor="middle" x="419.84" y="-266" font-family="Roboto" font-size="8.00"> order (sale)</text>
</g>
<!-- expenses_models_Expense -->
<g id="node8" class="node">
<title>expenses_models_Expense</title>
<polygon fill="white" stroke="none" points="540.89,-302 540.89,-394 664.22,-394 664.22,-302 540.89,-302"/>
<polygon fill="#1b563f" stroke="none" points="541.89,-371 541.89,-393 663.22,-393 663.22,-371 541.89,-371"/>
<text text-anchor="start" x="570.77" y="-380" font-family="Roboto" font-size="8.00">    </text>
<text text-anchor="start" x="578.77" y="-380" font-family="Roboto" font-weight="bold" font-size="10.00" fill="white">    Expense    </text>
<text text-anchor="start" x="543.89" y="-362.8" font-family="Roboto" font-size="8.00">    </text>
<text text-anchor="start" x="551.89" y="-362.8" font-family="Roboto" font-weight="bold" font-size="8.00">id</text>
<text text-anchor="start" x="558.56" y="-362.8" font-family="Roboto" font-size="8.00">    </text>
<text text-anchor="start" x="599.44" y="-362.8" font-family="Roboto" font-size="8.00">    </text>
<text text-anchor="start" x="607.44" y="-362.8" font-family="Roboto" font-weight="bold" font-size="8.00">BigAutoField</text>
<text text-anchor="start" x="653.22" y="-362.8" font-family="Roboto" font-size="8.00">    </text>
<text text-anchor="start" x="543.89" y="-349.2" font-family="Roboto" font-size="8.00">    </text>
<text text-anchor="start" x="551.89" y="-349.2" font-family="Roboto" font-size="8.00">amount</text>
<text text-anchor="start" x="575.88" y="-349.2" font-family="Roboto" font-size="8.00">    </text>
<text text-anchor="start" x="599.44" y="-349.2" font-family="Roboto" font-size="8.00">    </text>
<text text-anchor="start" x="607.44" y="-349.2" font-family="Roboto" font-size="8.00">DecimalField</text>
<text text-anchor="start" x="650.98" y="-349.2" font-family="Roboto" font-size="8.00">    </text>
<text text-anchor="start" x="543.89" y="-335.6" font-family="Roboto" font-size="8.00">    </text>
<text text-anchor="start" x="551.89" y="-335.6" font-family="Roboto" font-size="8.00">category</text>
<text text-anchor="start" x="579.43" y="-335.6" font-family="Roboto" font-size="8.00">    </text>
<text text-anchor="start" x="599.44" y="-335.6" font-family="Roboto" font-size="8.00">    </text>
<text text-anchor="start" x="607.44" y="-335.6" font-family="Roboto" font-size="8.00">CharField</text>
<text text-anchor="start" x="639.43" y="-335.6" font-family="Roboto" font-size="8.00">    </text>
<text text-anchor="start" x="543.89" y="-322" font-family="Roboto" font-size="8.00">    </text>
<text text-anchor="start" x="551.89" y="-322" font-family="Roboto" font-size="8.00">date</text>
<text text-anchor="start" x="565.21" y="-322" font-family="Roboto" font-size="8.00">    </text>
<text text-anchor="start" x="599.44" y="-322" font-family="Roboto" font-size="8.00">    </text>
<text text-anchor="start" x="607.44" y="-322" font-family="Roboto" font-size="8.00">DateField</text>
<text text-anchor="start" x="638.98" y="-322" font-family="Roboto" font-size="8.00">    </text>
<text text-anchor="start" x="543.89" y="-308.4" font-family="Roboto" font-size="8.00">    </text>
<text text-anchor="start" x="551.89" y="-308.4" font-family="Roboto" font-size="8.00">description</text>
<text text-anchor="start" x="587.44" y="-308.4" font-family="Roboto" font-size="8.00">    </text>
<text text-anchor="start" x="599.44" y="-308.4" font-family="Roboto" font-size="8.00">    </text>
<text text-anchor="start" x="607.44" y="-308.4" font-family="Roboto" font-size="8.00">CharField</text>
<text text-anchor="start" x="639.43" y="-308.4" font-family="Roboto" font-size="8.00">    </text>
<polygon fill="none" stroke="black" points="540.89,-302 540.89,-394 664.22,-394 664.22,-302 540.89,-302"/>
</g>
</g>
</svg>