<svg xmlns="http://www.w3.org/2000/svg" xmlns:xlink="http://www.w3.org/1999/xlink" width="546pt" height="413pt" viewBox="0.00 0.00 545.54 412.80">
<g id="graph0" class="graph" transform="scale(1 1) rotate(0) translate(4 408.8)">
<title>model_graph</title>
<polygon fill="white" stroke="none" points="-4,4 -4,-408.8 541.54,-408.8 541.54,4 -4,4"/>
<!-- menu_models_MenuCategory -->
<g id="node1" class="node">
<title>menu_models_MenuCategory</title>
<polygon fill="white" stroke="none" points="37.33,-17.6 37.33,-68.8 142.43,-68.8 142.43,-17.6 37.33,-17.6"/>
<polygon fill="#1b563f" stroke="none" points="38.33,-45.8 38.33,-67.8 141.43,-67.8 141.43,-45.8 38.33,-45.8"/>
<text text-anchor="start" x="43.67" y="-54.8" font-family="Roboto" font-size="8.00">    </text>
<text text-anchor="start" x="51.67" y="-54.8" font-family="Roboto" font-weight="bold" font-size="10.00" fill="white">    MenuCategory    </text>
<text text-anchor="start" x="40.33" y="-37.6" font-family="Roboto" font-size="8.00">    </text>
<text text-anchor="start" x="48.33" y="-37.6" font-family="Roboto" font-weight="bold" font-size="8.00">id</text>
<text text-anchor="start" x="55" y="-37.6" font-family="Roboto" font-size="8.00">    </text>
<text text-anchor="start" x="77.65" y="-37.6" font-family="Roboto" font-size="8.00">    </text>
<text text-anchor="start" x="85.65" y="-37.6" font-family="Roboto" font-weight="bold" font-size="8.00">BigAutoField</text>
<text text-anchor="start" x="131.43" y="-37.6" font-family="Roboto" font-size="8.00">    </text>
<text text-anchor="start" x="40.33" y="-24" font-family="Roboto" font-size="8.00">    </text>
<text text-anchor="start" x="48.33" y="-24" font-family="Roboto" font-size="8.00">name</text>
<text text-anchor="start" x="65.65" y="-24" font-family="Roboto" font-size="8.00">    </text>
<text text-anchor="start" x="77.65" y="-24" font-family="Roboto" font-size="8.00">    </text>
<text text-anchor="start" x="85.65" y="-24" font-family="Roboto" font-size="8.00">CharField</text>
<text text-anchor="start" x="117.65" y="-24" font-family="Roboto" font-size="8.00">    </text>
<polygon fill="none" stroke="black" points="37.33,-17.6 37.33,-68.8 142.43,-68.8 142.43,-17.6 37.33,-17.6"/>
</g>
<!-- menu_models_MenuItem -->
<g id="node2" class="node">
<title>menu_models_MenuItem</title>
<polygon fill="white" stroke="none" points="22.56,-136 22.56,-241.6 157.2,-241.6 157.2,-136 22.56,-136"/>
<polygon fill="#1b563f" stroke="none" points="23.56,-218.6 23.56,-240.6 156.2,-240.6 156.2,-218.6 23.56,-218.6"/>
<text text-anchor="start" x="53.39" y="-227.6" font-family="Roboto" font-size="8.00">    </text>
<text text-anchor="start" x="61.39" y="-227.6" font-family="Roboto" font-weight="bold" font-size="10.00" fill="white">    MenuItem    </text>
<text text-anchor="start" x="25.56" y="-210.4" font-family="Roboto" font-size="8.00">    </text>
<text text-anchor="start" x="33.56" y="-210.4" font-family="Roboto" font-weight="bold" font-size="8.00">id</text>
<text text-anchor="start" x="40.23" y="-210.4" font-family="Roboto" font-size="8.00">    </text>
<text text-anchor="start" x="83.77" y="-210.4" font-family="Roboto" font-size="8.00">    </text>
<text text-anchor="start" x="91.77" y="-210.4" font-family="Roboto" font-weight="bold" font-size="8.00">BigAutoField</text>
<text text-anchor="start" x="137.55" y="-210.4" font-family="Roboto" font-size="8.00">    </text>
<text text-anchor="start" x="25.56" y="-196.8" font-family="Roboto" font-size="8.00">    </text>
<text text-anchor="start" x="33.56" y="-196.8" font-family="Roboto" font-weight="bold" font-size="8.00">category</text>
<text text-anchor="start" x="62.88" y="-196.8" font-family="Roboto" font-size="8.00">    </text>
<text text-anchor="start" x="83.77" y="-196.8" font-family="Roboto" font-size="8.00">    </text>
<text text-anchor="start" x="91.77" y="-196.8" font-family="Roboto" font-weight="bold" font-size="8.00">ForeignKey (id)</text>
<text text-anchor="start" x="146.2" y="-196.8" font-family="Roboto" font-size="8.00">    </text>
<text text-anchor="start" x="25.56" y="-183.2" font-family="Roboto" font-size="8.00">    </text>
<text text-anchor="start" x="33.56" y="-183.2" font-family="Roboto" font-size="8.00" fill="#7b7b7b">description</text>
<text text-anchor="start" x="69.11" y="-183.2" font-family="Roboto" font-size="8.00">    </text>
<text text-anchor="start" x="83.77" y="-183.2" font-family="Roboto" font-size="8.00">    </text>
<text text-anchor="start" x="91.77" y="-183.2" font-family="Roboto" font-size="8.00" fill="#7b7b7b">TextField</text>
<text text-anchor="start" x="122.87" y="-183.2" font-family="Roboto" font-size="8.00">    </text>
<text text-anchor="start" x="25.56" y="-169.6" font-family="Roboto" font-size="8.00">    </text>
<text text-anchor="start" x="33.56" y="-169.6" font-family="Roboto" font-size="8.00">is_available</text>
<text text-anchor="start" x="71.77" y="-169.6" font-family="Roboto" font-size="8.00">    </text>
<text text-anchor="start" x="83.77" y="-169.6" font-family="Roboto" font-size="8.00">    </text>
<text text-anchor="start" x="91.77" y="-169.6" font-family="Roboto" font-size="8.00">BooleanField</text>
<text text-anchor="start" x="134.87" y="-169.6" font-family="Roboto" font-size="8.00">    </text>
<text text-anchor="start" x="25.56" y="-156" font-family="Roboto" font-size="8.00">    </text>
<text text-anchor="start" x="33.56" y="-156" font-family="Roboto" font-size="8.00">name</text>
<text text-anchor="start" x="50.88" y="-156" font-family="Roboto" font-size="8.00">    </text>
<text text-anchor="start" x="83.77" y="-156" font-family="Roboto" font-size="8.00">    </text>
<text text-anchor="start" x="91.77" y="-156" font-family="Roboto" font-size="8.00">CharField</text>
<text text-anchor="start" x="123.76" y="-156" font-family="Roboto" font-size="8.00">    </text>
<text text-anchor="start" x="25.56" y="-142.4" font-family="Roboto" font-size="8.00">    </text>
<text text-anchor="start" x="33.56" y="-142.4" font-family="Roboto" font-size="8.00">price</text>
<text text-anchor="start" x="49.55" y="-142.4" font-family="Roboto" font-size="8.00">    </text>
<text text-anchor="start" x="83.77" y="-142.4" font-family="Roboto" font-size="8.00">    </text>
<text text-anchor="start" x="91.77" y="-142.4" font-family="Roboto" font-size="8.00">DecimalField</text>
<text text-anchor="start" x="135.31" y="-142.4" font-family="Roboto" font-size="8.00">    </text>
<polygon fill="none" stroke="black" points="22.56,-136 22.56,-241.6 157.2,-241.6 157.2,-136 22.56,-136"/>
</g>
<!-- menu_models_MenuItem&#45;&gt;menu_models_MenuCategory -->
<g id="edge1" class="edge">
<title>menu_models_MenuItem-&gt;menu_models_MenuCategory</title>
<path fill="none" stroke="black" d="M89.88,-123.6C89.88,-105.78 89.88,-87.32 89.88,-72.69"/>
<ellipse fill="black" stroke="black" cx="89.88" cy="-127.78" rx="4" ry="4"/>
<text text-anchor="middle" x="116.98" y="-106.8" font-family="Roboto" font-size="8.00"> category (items)</text>
</g>
<!-- orders_models_Order -->
<g id="node3" class="node">
<title>orders_models_Order</title>
<polygon fill="white" stroke="none" points="209.12,-142.8 209.12,-234.8 340.65,-234.8 340.65,-142.8 209.12,-142.8"/>
<polygon fill="#1b563f" stroke="none" points="210.12,-211.8 210.12,-233.8 339.65,-233.8 339.65,-211.8 210.12,-211.8"/>
<text text-anchor="start" x="247.55" y="-220.8" font-family="Roboto" font-size="8.00">    </text>
<text text-anchor="start" x="255.55" y="-220.8" font-family="Roboto" font-weight="bold" font-size="10.00" fill="white">    Order    </text>
<text text-anchor="start" x="212.12" y="-203.6" font-family="Roboto" font-size="8.00">    </text>
<text text-anchor="start" x="220.12" y="-203.6" font-family="Roboto" font-weight="bold" font-size="8.00">id</text>
<text text-anchor="start" x="226.79" y="-203.6" font-family="Roboto" font-size="8.00">    </text>
<text text-anchor="start" x="267.21" y="-203.6" font-family="Roboto" font-size="8.00">    </text>
<text text-anchor="start" x="275.21" y="-203.6" font-family="Roboto" font-weight="bold" font-size="8.00">BigAutoField</text>
<text text-anchor="start" x="320.99" y="-203.6" font-family="Roboto" font-size="8.00">    </text>
<text text-anchor="start" x="212.12" y="-190" font-family="Roboto" font-size="8.00">    </text>
<text text-anchor="start" x="220.12" y="-190" font-family="Roboto" font-weight="bold" font-size="8.00">table</text>
<text text-anchor="start" x="237" y="-190" font-family="Roboto" font-size="8.00">    </text>
<text text-anchor="start" x="267.21" y="-190" font-family="Roboto" font-size="8.00">    </text>
<text text-anchor="start" x="275.21" y="-190" font-family="Roboto" font-weight="bold" font-size="8.00">ForeignKey (id)</text>
<text text-anchor="start" x="329.65" y="-190" font-family="Roboto" font-size="8.00">    </text>
<text text-anchor="start" x="212.12" y="-176.4" font-family="Roboto" font-size="8.00">    </text>
<text text-anchor="start" x="220.12" y="-176.4" font-family="Roboto" font-size="8.00" fill="#7b7b7b">created_at</text>
<text text-anchor="start" x="252.98" y="-176.4" font-family="Roboto" font-size="8.00">    </text>
<text text-anchor="start" x="267.21" y="-176.4" font-family="Roboto" font-size="8.00">    </text>
<text text-anchor="start" x="275.21" y="-176.4" font-family="Roboto" font-size="8.00" fill="#7b7b7b">DateTimeField</text>
<text text-anchor="start" x="323.64" y="-176.4" font-family="Roboto" font-size="8.00">    </text>
<text text-anchor="start" x="212.12" y="-162.8" font-family="Roboto" font-size="8.00">    </text>
<text text-anchor="start" x="220.12" y="-162.8" font-family="Roboto" font-size="8.00">status</text>
<text text-anchor="start" x="238.34" y="-162.8" font-family="Roboto" font-size="8.00">    </text>
<text text-anchor="start" x="267.21" y="-162.8" font-family="Roboto" font-size="8.00">    </text>
<text text-anchor="start" x="275.21" y="-162.8" font-family="Roboto" font-size="8.00">CharField</text>
<text text-anchor="start" x="307.21" y="-162.8" font-family="Roboto" font-size="8.00">    </text>
<text text-anchor="start" x="212.12" y="-149.2" font-family="Roboto" font-size="8.00">    </text>
<text text-anchor="start" x="220.12" y="-149.2" font-family="Roboto" font-size="8.00" fill="#7b7b7b">updated_at</text>
<text text-anchor="start" x="255.21" y="-149.2" font-family="Roboto" font-size="8.00">    </text>
<text text-anchor="start" x="267.21" y="-149.2" font-family="Roboto" font-size="8.00">    </text>
<text text-anchor="start" x="275.21" y="-149.2" font-family="Roboto" font-size="8.00" fill="#7b7b7b">DateTimeField</text>
<text text-anchor="start" x="323.64" y="-149.2" font-family="Roboto" font-size="8.00">    </text>
<polygon fill="none" stroke="black" points="209.12,-142.8 209.12,-234.8 340.65,-234.8 340.65,-142.8 209.12,-142.8"/>
</g>
<!-- tables_models_Table -->
<g id="node5" class="node">
<title>tables_models_Table</title>
<polygon fill="white" stroke="none" points="190.12,-4 190.12,-82.4 359.65,-82.4 359.65,-4 190.12,-4"/>
<polygon fill="#1b563f" stroke="none" points="191.12,-59.4 191.12,-81.4 358.65,-81.4 358.65,-59.4 191.12,-59.4"/>
<text text-anchor="start" x="248.66" y="-68.4" font-family="Roboto" font-size="8.00">    </text>
<text text-anchor="start" x="256.66" y="-68.4" font-family="Roboto" font-weight="bold" font-size="10.00" fill="white">    Table    </text>
<text text-anchor="start" x="193.12" y="-51.2" font-family="Roboto" font-size="8.00">    </text>
<text text-anchor="start" x="201.12" y="-51.2" font-family="Roboto" font-weight="bold" font-size="8.00">id</text>
<text text-anchor="start" x="207.79" y="-51.2" font-family="Roboto" font-size="8.00">    </text>
<text text-anchor="start" x="257.1" y="-51.2" font-family="Roboto" font-size="8.00">    </text>
<text text-anchor="start" x="265.1" y="-51.2" font-family="Roboto" font-weight="bold" font-size="8.00">BigAutoField</text>
<text text-anchor="start" x="310.88" y="-51.2" font-family="Roboto" font-size="8.00">    </text>
<text text-anchor="start" x="193.12" y="-37.6" font-family="Roboto" font-size="8.00">    </text>
<text text-anchor="start" x="201.12" y="-37.6" font-family="Roboto" font-size="8.00">seats</text>
<text text-anchor="start" x="216.67" y="-37.6" font-family="Roboto" font-size="8.00">    </text>
<text text-anchor="start" x="257.1" y="-37.6" font-family="Roboto" font-size="8.00">    </text>
<text text-anchor="start" x="265.1" y="-37.6" font-family="Roboto" font-size="8.00">PositiveSmallIntegerField</text>
<text text-anchor="start" x="348.65" y="-37.6" font-family="Roboto" font-size="8.00">    </text>
<text text-anchor="start" x="193.12" y="-24" font-family="Roboto" font-size="8.00">    </text>
<text text-anchor="start" x="201.12" y="-24" font-family="Roboto" font-size="8.00">status</text>
<text text-anchor="start" x="219.34" y="-24" font-family="Roboto" font-size="8.00">    </text>
<text text-anchor="start" x="257.1" y="-24" font-family="Roboto" font-size="8.00">    </text>
<text text-anchor="start" x="265.1" y="-24" font-family="Roboto" font-size="8.00">CharField</text>
<text text-anchor="start" x="297.1" y="-24" font-family="Roboto" font-size="8.00">    </text>
<text text-anchor="start" x="193.12" y="-10.4" font-family="Roboto" font-size="8.00">    </text>
<text text-anchor="start" x="201.12" y="-10.4" font-family="Roboto" font-size="8.00">table_number</text>
<text text-anchor="start" x="245.1" y="-10.4" font-family="Roboto" font-size="8.00">    </text>
<text text-anchor="start" x="257.1" y="-10.4" font-family="Roboto" font-size="8.00">    </text>
<text text-anchor="start" x="265.1" y="-10.4" font-family="Roboto" font-size="8.00">PositiveSmallIntegerField</text>
<text text-anchor="start" x="348.65" y="-10.4" font-family="Roboto" font-size="8.00">    </text>
<polygon fill="none" stroke="black" points="190.12,-4 190.12,-82.4 359.65,-82.4 359.65,-4 190.12,-4"/>
</g>
<!-- orders_models_Order&#45;&gt;tables_models_Table -->
<g id="edge2" class="edge">
<title>orders_models_Order-&gt;tables_models_Table</title>
<path fill="none" stroke="black" d="M274.88,-130.55C274.88,-115.69 274.88,-99.96 274.88,-86.05"/>
<ellipse fill="black" stroke="black" cx="274.88" cy="-134.68" rx="4" ry="4"/>
<text text-anchor="middle" x="297.31" y="-106.8" font-family="Roboto" font-size="8.00"> table (orders)</text>
</g>
<!-- orders_models_OrderItem -->
<g id="node4" class="node">
<title>orders_models_OrderItem</title>
<polygon fill="white" stroke="none" points="8,-295.2 8,-400.8 171.76,-400.8 171.76,-295.2 8,-295.2"/>
<polygon fill="#1b563f" stroke="none" points="9,-377.8 9,-399.8 170.76,-399.8 170.76,-377.8 9,-377.8"/>
<text text-anchor="start" x="52.56" y="-386.8" font-family="Roboto" font-size="8.00">    </text>
<text text-anchor="start" x="60.56" y="-386.8" font-family="Roboto" font-weight="bold" font-size="10.00" fill="white">    OrderItem    </text>
<text text-anchor="start" x="11" y="-369.6" font-family="Roboto" font-size="8.00">    </text>
<text text-anchor="start" x="19" y="-369.6" font-family="Roboto" font-weight="bold" font-size="8.00">id</text>
<text text-anchor="start" x="25.67" y="-369.6" font-family="Roboto" font-size="8.00">    </text>
<text text-anchor="start" x="69.21" y="-369.6" font-family="Roboto" font-size="8.00">    </text>
<text text-anchor="start" x="77.21" y="-369.6" font-family="Roboto" font-weight="bold" font-size="8.00">BigAutoField</text>
<text text-anchor="start" x="123" y="-369.6" font-family="Roboto" font-size="8.00">    </text>
<text text-anchor="start" x="11" y="-356" font-family="Roboto" font-size="8.00">    </text>
<text text-anchor="start" x="19" y="-356" font-family="Roboto" font-weight="bold" font-size="8.00">menu_item</text>
<text text-anchor="start" x="57.21" y="-356" font-family="Roboto" font-size="8.00">    </text>
<text text-anchor="start" x="69.21" y="-356" font-family="Roboto" font-size="8.00">    </text>
<text text-anchor="start" x="77.21" y="-356" font-family="Roboto" font-weight="bold" font-size="8.00">ForeignKey (id)</text>
<text text-anchor="start" x="131.65" y="-356" font-family="Roboto" font-size="8.00">    </text>
<text text-anchor="start" x="11" y="-342.4" font-family="Roboto" font-size="8.00">    </text>
<text text-anchor="start" x="19" y="-342.4" font-family="Roboto" font-weight="bold" font-size="8.00">order</text>
<text text-anchor="start" x="38.1" y="-342.4" font-family="Roboto" font-size="8.00">    </text>
<text text-anchor="start" x="69.21" y="-342.4" font-family="Roboto" font-size="8.00">    </text>
<text text-anchor="start" x="77.21" y="-342.4" font-family="Roboto" font-weight="bold" font-size="8.00">ForeignKey (id)</text>
<text text-anchor="start" x="131.65" y="-342.4" font-family="Roboto" font-size="8.00">    </text>
<text text-anchor="start" x="11" y="-328.8" font-family="Roboto" font-size="8.00">    </text>
<text text-anchor="start" x="19" y="-328.8" font-family="Roboto" font-size="8.00" fill="#7b7b7b">note</text>
<text text-anchor="start" x="32.77" y="-328.8" font-family="Roboto" font-size="8.00">    </text>
<text text-anchor="start" x="69.21" y="-328.8" font-family="Roboto" font-size="8.00">    </text>
<text text-anchor="start" x="77.21" y="-328.8" font-family="Roboto" font-size="8.00" fill="#7b7b7b">TextField</text>
<text text-anchor="start" x="108.32" y="-328.8" font-family="Roboto" font-size="8.00">    </text>
<text text-anchor="start" x="11" y="-315.2" font-family="Roboto" font-size="8.00">    </text>
<text text-anchor="start" x="19" y="-315.2" font-family="Roboto" font-size="8.00">quantity</text>
<text text-anchor="start" x="45.22" y="-315.2" font-family="Roboto" font-size="8.00">    </text>
<text text-anchor="start" x="69.21" y="-315.2" font-family="Roboto" font-size="8.00">    </text>
<text text-anchor="start" x="77.21" y="-315.2" font-family="Roboto" font-size="8.00">PositiveSmallIntegerField</text>
<text text-anchor="start" x="160.76" y="-315.2" font-family="Roboto" font-size="8.00">    </text>
<text text-anchor="start" x="11" y="-301.6" font-family="Roboto" font-size="8.00">    </text>
<text text-anchor="start" x="19" y="-301.6" font-family="Roboto" font-size="8.00">unit_price</text>
<text text-anchor="start" x="51.43" y="-301.6" font-family="Roboto" font-size="8.00">    </text>
<text text-anchor="start" x="69.21" y="-301.6" font-family="Roboto" font-size="8.00">    </text>
<text text-anchor="start" x="77.21" y="-301.6" font-family="Roboto" font-size="8.00">DecimalField</text>
<text text-anchor="start" x="120.76" y="-301.6" font-family="Roboto" font-size="8.00">    </text>
<polygon fill="none" stroke="black" points="8,-295.2 8,-400.8 171.76,-400.8 171.76,-295.2 8,-295.2"/>
</g>
<!-- orders_models_OrderItem&#45;&gt;menu_models_MenuItem -->
<g id="edge4" class="edge">
<title>orders_models_OrderItem-&gt;menu_models_MenuItem</title>
<path fill="none" stroke="black" d="M89.88,-282.7C89.88,-270.37 89.88,-257.55 89.88,-245.52"/>
<ellipse fill="black" stroke="black" cx="89.88" cy="-287.08" rx="4" ry="4"/>
<text text-anchor="middle" x="128.09" y="-266" font-family="Roboto" font-size="8.00"> menu_item (orderitem)</text>
</g>
<!-- orders_models_OrderItem&#45;&gt;orders_models_Order -->
<g id="edge3" class="edge">
<title>orders_models_OrderItem-&gt;orders_models_Order</title>
<path fill="none" stroke="black" d="M162.08,-285.65C180.45,-270.04 199.95,-253.47 217.48,-238.58"/>
<ellipse fill="black" stroke="black" cx="158.79" cy="-288.44" rx="4" ry="4"/>
<text text-anchor="middle" x="209.7" y="-266" font-family="Roboto" font-size="8.00"> order (items)</text>
</g>
<!-- sales_models_Sale -->
<g id="node6" class="node">
<title>sales_models_Sale</title>
<polygon fill="white" stroke="none" points="205.55,-302 205.55,-394 372.21,-394 372.21,-302 205.55,-302"/>
<polygon fill="#1b563f" stroke="none" points="206.55,-371 206.55,-393 371.21,-393 371.21,-371 206.55,-371"/>
<text text-anchor="start" x="265.99" y="-380" font-family="Roboto" font-size="8.00">    </text>
<text text-anchor="start" x="273.99" y="-380" font-family="Roboto" font-weight="bold" font-size="10.00" fill="white">    Sale    </text>
<text text-anchor="start" x="208.55" y="-362.8" font-family="Roboto" font-size="8.00">    </text>
<text text-anchor="start" x="216.55" y="-362.8" font-family="Roboto" font-weight="bold" font-size="8.00">id</text>
<text text-anchor="start" x="223.22" y="-362.8" font-family="Roboto" font-size="8.00">    </text>
<text text-anchor="start" x="284.1" y="-362.8" font-family="Roboto" font-size="8.00">    </text>
<text text-anchor="start" x="292.1" y="-362.8" font-family="Roboto" font-weight="bold" font-size="8.00">BigAutoField</text>
<text text-anchor="start" x="337.88" y="-362.8" font-family="Roboto" font-size="8.00">    </text>
<text text-anchor="start" x="208.55" y="-349.2" font-family="Roboto" font-size="8.00">    </text>
<text text-anchor="start" x="216.55" y="-349.2" font-family="Roboto" font-weight="bold" font-size="8.00">order</text>
<text text-anchor="start" x="235.65" y="-349.2" font-family="Roboto" font-size="8.00">    </text>
<text text-anchor="start" x="284.1" y="-349.2" font-family="Roboto" font-size="8.00">    </text>
<text text-anchor="start" x="292.1" y="-349.2" font-family="Roboto" font-weight="bold" font-size="8.00">OneToOneField (id)</text>
<text text-anchor="start" x="361.21" y="-349.2" font-family="Roboto" font-size="8.00">    </text>
<text text-anchor="start" x="208.55" y="-335.6" font-family="Roboto" font-size="8.00">    </text>
<text text-anchor="start" x="216.55" y="-335.6" font-family="Roboto" font-size="8.00">amount</text>
<text text-anchor="start" x="240.55" y="-335.6" font-family="Roboto" font-size="8.00">    </text>
<text text-anchor="start" x="284.1" y="-335.6" font-family="Roboto" font-size="8.00">    </text>
<text text-anchor="start" x="292.1" y="-335.6" font-family="Roboto" font-size="8.00">DecimalField</text>
<text text-anchor="start" x="335.64" y="-335.6" font-family="Roboto" font-size="8.00">    </text>
<text text-anchor="start" x="208.55" y="-322" font-family="Roboto" font-size="8.00">    </text>
<text text-anchor="start" x="216.55" y="-322" font-family="Roboto" font-size="8.00">payment_method</text>
<text text-anchor="start" x="272.1" y="-322" font-family="Roboto" font-size="8.00">    </text>
<text text-anchor="start" x="284.1" y="-322" font-family="Roboto" font-size="8.00">    </text>
<text text-anchor="start" x="292.1" y="-322" font-family="Roboto" font-size="8.00">CharField</text>
<text text-anchor="start" x="324.09" y="-322" font-family="Roboto" font-size="8.00">    </text>
<text text-anchor="start" x="208.55" y="-308.4" font-family="Roboto" font-size="8.00">    </text>
<text text-anchor="start" x="216.55" y="-308.4" font-family="Roboto" font-size="8.00" fill="#7b7b7b">payment_time</text>
<text text-anchor="start" x="262.32" y="-308.4" font-family="Roboto" font-size="8.00">    </text>
<text text-anchor="start" x="284.1" y="-308.4" font-family="Roboto" font-size="8.00">    </text>
<text text-anchor="start" x="292.1" y="-308.4" font-family="Roboto" font-size="8.00" fill="#7b7b7b">DateTimeField</text>
<text text-anchor="start" x="340.53" y="-308.4" font-family="Roboto" font-size="8.00">    </text>
<polygon fill="none" stroke="black" points="205.55,-302 205.55,-394 372.21,-394 372.21,-302 205.55,-302"/>
</g>
<!-- sales_models_Sale&#45;&gt;orders_models_Order -->
<g id="edge5" class="edge">
<title>sales_models_Sale-&gt;orders_models_Order</title>
<path fill="none" stroke="black" d="M284.53,-298.12C282.84,-279.2 280.92,-257.57 279.23,-238.65"/>
<text text-anchor="middle" x="301.62" y="-266" font-family="Roboto" font-size="8.00"> order (sale)</text>
</g>
<!-- expenses_models_Expense -->
<g id="node7" class="node">
<title>expenses_models_Expense</title>
<polygon fill="white" stroke="none" points="406.22,-302 406.22,-394 529.54,-394 529.54,-302 406.22,-302"/>
<polygon fill="#1b563f" stroke="none" points="407.22,-371 407.22,-393 528.54,-393 528.54,-371 407.22,-371"/>
<text text-anchor="start" x="436.1" y="-380" font-family="Roboto" font-size="8.00">    </text>
<text text-anchor="start" x="444.1" y="-380" font-family="Roboto" font-weight="bold" font-size="10.00" fill="white">    Expense    </text>
<text text-anchor="start" x="409.22" y="-362.8" font-family="Roboto" font-size="8.00">    </text>
<text text-anchor="start" x="417.22" y="-362.8" font-family="Roboto" font-weight="bold" font-size="8.00">id</text>
<text text-anchor="start" x="423.89" y="-362.8" font-family="Roboto" font-size="8.00">    </text>
<text text-anchor="start" x="464.76" y="-362.8" font-family="Roboto" font-size="8.00">    </text>
<text text-anchor="start" x="472.76" y="-362.8" font-family="Roboto" font-weight="bold" font-size="8.00">BigAutoField</text>
<text text-anchor="start" x="518.54" y="-362.8" font-family="Roboto" font-size="8.00">    </text>
<text text-anchor="start" x="409.22" y="-349.2" font-family="Roboto" font-size="8.00">    </text>
<text text-anchor="start" x="417.22" y="-349.2" font-family="Roboto" font-size="8.00">amount</text>
<text text-anchor="start" x="441.21" y="-349.2" font-family="Roboto" font-size="8.00">    </text>
<text text-anchor="start" x="464.76" y="-349.2" font-family="Roboto" font-size="8.00">    </text>
<text text-anchor="start" x="472.76" y="-349.2" font-family="Roboto" font-size="8.00">DecimalField</text>
<text text-anchor="start" x="516.31" y="-349.2" font-family="Roboto" font-size="8.00">    </text>
<text text-anchor="start" x="409.22" y="-335.6" font-family="Roboto" font-size="8.00">    </text>
<text text-anchor="start" x="417.22" y="-335.6" font-family="Roboto" font-size="8.00">category</text>
<text text-anchor="start" x="444.76" y="-335.6" font-family="Roboto" font-size="8.00">    </text>
<text text-anchor="start" x="464.76" y="-335.6" font-family="Roboto" font-size="8.00">    </text>
<text text-anchor="start" x="472.76" y="-335.6" font-family="Roboto" font-size="8.00">CharField</text>
<text text-anchor="start" x="504.76" y="-335.6" font-family="Roboto" font-size="8.00">    </text>
<text text-anchor="start" x="409.22" y="-322" font-family="Roboto" font-size="8.00">    </text>
<text text-anchor="start" x="417.22" y="-322" font-family="Roboto" font-size="8.00">date</text>
<text text-anchor="start" x="430.54" y="-322" font-family="Roboto" font-size="8.00">    </text>
<text text-anchor="start" x="464.76" y="-322" font-family="Roboto" font-size="8.00">    </text>
<text text-anchor="start" x="472.76" y="-322" font-family="Roboto" font-size="8.00">DateField</text>
<text text-anchor="start" x="504.31" y="-322" font-family="Roboto" font-size="8.00">    </text>
<text text-anchor="start" x="409.22" y="-308.4" font-family="Roboto" font-size="8.00">    </text>
<text text-anchor="start" x="417.22" y="-308.4" font-family="Roboto" font-size="8.00">description</text>
<text text-anchor="start" x="452.76" y="-308.4" font-family="Roboto" font-size="8.00">    </text>
<text text-anchor="start" x="464.76" y="-308.4" font-family="Roboto" font-size="8.00">    </text>
<text text-anchor="start" x="472.76" y="-308.4" font-family="Roboto" font-size="8.00">CharField</text>
<text text-anchor="start" x="504.76" y="-308.4" font-family="Roboto" font-size="8.00">    </text>
<polygon fill="none" stroke="black" points="406.22,-302 406.22,-394 529.54,-394 529.54,-302 406.22,-302"/>
</g>
</g>
</svg>